<svg width="1200" height="630" xmlns="http://www.w3.org/2000/svg">
  <defs>
    <linearGradient id="bg" x1="0%" y1="0%" x2="100%" y2="100%">
      <stop offset="0%" style="stop-color:#170d02;stop-opacity:1" />
      <stop offset="100%" style="stop-color:#000000;stop-opacity:1" />
    </linearGradient>
    <radialGradient id="glow" cx="30%" cy="40%" r="60%">
      <stop offset="0%" style="stop-color:#ffac02;stop-opacity:0.25" />
      <stop offset="100%" style="stop-color:#ffac02;stop-opacity:0" />
    </radialGradient>
  </defs>
  <rect width="1200" height="630" fill="url(#bg)" />
  <rect width="1200" height="630" fill="url(#glow)" />
  <g stroke="#ffac02" stroke-width="2" fill="none" opacity="0.6">
    <line x1="60" y1="60" x2="60" y2="100" />
    <line x1="60" y1="60" x2="100" y2="60" />
    <line x1="1140" y1="60" x2="1140" y2="100" />
    <line x1="1140" y1="60" x2="1100" y2="60" />
    <line x1="60" y1="570" x2="60" y2="530" />
    <line x1="60" y1="570" x2="100" y2="570" />
    <line x1="1140" y1="570" x2="1140" y2="530" />
    <line x1="1140" y1="570" x2="1100" y2="570" />
  </g>
  <text x="100" y="100" font-family="sans-serif" font-size="18" fill="#54a87e" letter-spacing="6" font-weight="500">✦ CULTURAL IP MARKETING</text>
  <text x="100" y="240" font-family="serif" font-size="120" font-weight="900" fill="#ffac02" letter-spacing="8">百思传媒</text>
  <text x="100" y="290" font-family="sans-serif" font-size="28" fill="#ffac02" opacity="0.7" letter-spacing="4" font-weight="300">BAISI MEDIA GROUP</text>
  <text x="100" y="370" font-family="serif" font-size="42" fill="#f5f5f5" font-weight="500">值得信赖的文化内容IP整合营销集团</text>
  <line x1="100" y1="420" x2="1100" y2="420" stroke="#ffac02" stroke-width="1" opacity="0.4" />
  <text x="100" y="490" font-family="sans-serif" font-size="32" font-weight="800" fill="#ffac02">400+</text>
  <text x="100" y="515" font-family="sans-serif" font-size="14" fill="#f5f5f5" opacity="0.6" letter-spacing="3">专业团队</text>
  <text x="280" y="490" font-family="sans-serif" font-size="32" font-weight="800" fill="#54a87e">200+</text>
  <text x="280" y="515" font-family="sans-serif" font-size="14" fill="#f5f5f5" opacity="0.6" letter-spacing="3">服务影视IP</text>
  <text x="460" y="490" font-family="sans-serif" font-size="32" font-weight="800" fill="#ffac02">3000+</text>
  <text x="460" y="515" font-family="sans-serif" font-size="14" fill="#f5f5f5" opacity="0.6" letter-spacing="3">剧集打造</text>
  <text x="640" y="490" font-family="sans-serif" font-size="32" font-weight="800" fill="#54a87e">50+</text>
  <text x="640" y="515" font-family="sans-serif" font-size="14" fill="#f5f5f5" opacity="0.6" letter-spacing="3">一线品牌</text>
  <text x="820" y="490" font-family="sans-serif" font-size="32" font-weight="800" fill="#ffac02">100亿+</text>
  <text x="820" y="515" font-family="sans-serif" font-size="14" fill="#f5f5f5" opacity="0.6" letter-spacing="3">月均阅读</text>
  <text x="100" y="595" font-family="monospace" font-size="20" fill="#ffac02" letter-spacing="3" opacity="0.8">www.imbestent.com</text>
  <g transform="translate(1000, 130)">
    <circle cx="0" cy="0" r="100" fill="none" stroke="#ffac02" stroke-width="1" opacity="0.3" />
    <circle cx="0" cy="0" r="70" fill="none" stroke="#54a87e" stroke-width="1" opacity="0.3" />
    <circle cx="0" cy="0" r="40" fill="#ffac02" opacity="0.15" />
    <text x="0" y="6" font-family="sans-serif" font-size="12" fill="#ffac02" text-anchor="middle" letter-spacing="2">SINCE 2011</text>
  </g>
</svg>